<svg width="1024" height="1024" viewBox="0 0 1024 1024" fill="none" xmlns="http://www.w3.org/2000/svg">
<path fill-rule="evenodd" clip-rule="evenodd" d="M928.165 584.251C931.283 554.724 908.133 529 878.441 529H829.559C799.867 529 776.717 554.724 779.835 584.251L801.274 787.251C803.961 812.691 825.416 832 850.998 832H857.002C882.584 832 904.039 812.691 906.726 787.251L928.165 584.251ZM934 944C934 988.183 898.183 1024 854 1024C809.817 1024 774 988.183 774 944C774 899.817 809.817 864 854 864C898.183 864 934 899.817 934 944Z" fill="black"/>
<path fill-rule="evenodd" clip-rule="evenodd" d="M798.782 763.651C812.478 728.798 820 690.844 820 651.133C820 604.917 815.004 566.896 806.456 534.638C788.905 543.801 777.595 563.045 779.835 584.251L798.782 763.651ZM688.937 903.162C695.031 878.447 706.531 855.861 722.111 836.729C716.815 824.252 713.262 810.815 711.772 796.704L690.333 593.704C683.804 531.886 718.394 476.024 771.015 451.77C751.168 419.671 727.281 393.961 703.247 368.091C642.598 302.812 581.005 236.517 581.005 64C429.53 166.622 382.404 360.09 399.235 570.382C293.202 518.229 293.202 368.502 293.202 368.502C232.612 457.665 204 561.97 204 651.133C204 821.163 341.896 959 512 959C577.849 959 638.872 938.344 688.937 903.162Z" fill="black"/>
</svg>
