<svg width="1024" height="1024" viewBox="0 0 1024 1024" fill="none" xmlns="http://www.w3.org/2000/svg">
<path fill-rule="evenodd" clip-rule="evenodd" d="M1024 864C1024 952.366 952.366 1024 864 1024C775.634 1024 704 952.366 704 864C704 775.634 775.634 704 864 704C952.366 704 1024 775.634 1024 864ZM960 864C960 917.019 917.019 960 864 960C810.981 960 768 917.019 768 864C768 810.981 810.981 768 864 768C917.019 768 960 810.981 960 864Z" fill="black"/>
<path fill-rule="evenodd" clip-rule="evenodd" d="M819.089 618.023C702.451 639.18 614 741.261 614 864C614 889.621 617.854 914.342 625.014 937.614C590.024 951.417 551.898 959 512 959C341.896 959 204 821.163 204 651.133C204 561.97 232.612 457.665 293.202 368.502C293.202 368.502 293.202 518.229 399.235 570.382C382.404 360.09 429.53 166.622 581.005 64C581.005 236.517 642.598 302.812 703.247 368.091C757.756 426.762 811.503 484.613 819.089 618.023ZM813.987 711.972C799.663 783.403 760.608 845.9 706.128 890.162C704.728 881.649 704 872.91 704 864C704 793.1 750.115 732.971 813.987 711.972Z" fill="black"/>
</svg>
