<svg width="1024" height="1024" viewBox="0 0 1024 1024" fill="currentColor" xmlns="http://www.w3.org/2000/svg">
<path fill-rule="evenodd" clip-rule="evenodd" d="M781.615 114.896C751.343 130.934 723.71 151.862 696.557 179.475C621.23 158.965 588.821 153.325 512 153.325C435.179 153.325 402.77 158.965 327.443 179.475C264.571 115.538 199.125 87.4427 104.313 72.9062C74.4059 142.49 62.2127 217.194 96.5131 299.198C22.838 391.23 0 434.164 0 560.568C0 771.354 63.0627 948.835 512 948.835C960.937 948.835 1024 771.354 1024 560.568C1024 547.984 1023.77 536.228 1023.29 525.168C999.465 537.214 972.525 544 944 544C846.798 544 768 465.202 768 368C768 330.006 780.039 294.824 800.51 266.06L781.615 114.896ZM442.556 491.623C322.085 479.058 161.291 462.287 146.293 661.369C128.551 896.889 380.739 896.599 503.082 896.458C506.572 896.454 509.956 896.45 513.225 896.452C516.494 896.45 519.879 896.454 523.368 896.458C645.713 896.599 897.727 896.888 879.984 661.369C864.987 462.297 704.4 479.056 583.999 491.621C557.909 494.344 533.706 496.87 513.28 496.96C492.859 496.87 468.654 494.345 442.556 491.623ZM307.328 726.777C335.676 726.777 358.657 693.024 358.657 651.388C358.657 609.753 335.676 576 307.328 576C278.98 576 256 609.753 256 651.388C256 693.024 278.98 726.777 307.328 726.777ZM768 653.901C768 695.537 745.02 729.289 716.672 729.289C688.324 729.289 665.343 695.537 665.343 653.901C665.343 612.265 688.324 578.513 716.672 578.513C745.02 578.513 768 612.265 768 653.901Z" fill="black"/>
<path fill-rule="evenodd" clip-rule="evenodd" d="M1024 0H864L896 256H992L1024 0ZM1024 368C1024 412.183 988.183 448 944 448C899.817 448 864 412.183 864 368C864 323.817 899.817 288 944 288C988.183 288 1024 323.817 1024 368Z" fill="black"/>
</svg>
