<svg width="1024" height="1024" viewBox="0 0 1024 1024" fill="currentColor" xmlns="http://www.w3.org/2000/svg">
<path fill-rule="evenodd" clip-rule="evenodd" d="M999.349 408.432C952.51 446.637 892.704 469.547 827.547 469.547C677.325 469.547 555.547 347.768 555.547 197.547C555.547 183.217 556.655 169.146 558.79 155.415C544.82 154.714 529.572 154.419 512 154.419C435.179 154.419 402.77 160.059 327.443 180.569C264.571 116.632 199.125 88.5364 104.313 74C74.4059 143.584 62.2127 218.288 96.5131 300.292C22.838 392.324 0 435.258 0 561.661C0 772.448 63.0627 949.929 512 949.929C960.937 949.929 1024 772.448 1024 561.661C1024 493.066 1017.27 449.052 999.349 408.432ZM146.293 662.463C161.291 463.381 322.085 480.152 442.556 492.717C468.654 495.439 492.859 497.964 513.28 498.054C533.706 497.964 557.909 495.438 583.999 492.715C704.4 480.15 864.987 463.391 879.984 662.463C897.727 897.982 645.713 897.692 523.368 897.552C519.879 897.548 516.494 897.544 513.225 897.545C509.956 897.544 506.572 897.548 503.082 897.552C380.739 897.692 128.551 897.982 146.293 662.463ZM358.657 653.898C358.657 695.534 335.676 729.287 307.328 729.287C278.98 729.287 256 695.534 256 653.898C256 612.263 278.98 578.51 307.328 578.51C335.676 578.51 358.657 612.263 358.657 653.898ZM716.672 729.287C745.02 729.287 768 695.534 768 653.898C768 612.263 745.02 578.51 716.672 578.51C688.324 578.51 665.343 612.263 665.343 653.898C665.343 695.534 688.324 729.287 716.672 729.287Z" fill="black"/>
<path fill-rule="evenodd" clip-rule="evenodd" d="M992 192C992 280.366 920.366 352 832 352C743.634 352 672 280.366 672 192C672 103.634 743.634 32 832 32C920.366 32 992 103.634 992 192ZM928 192C928 245.019 885.019 288 832 288C778.981 288 736 245.019 736 192C736 138.981 778.981 96 832 96C885.019 96 928 138.981 928 192Z" fill="black"/>
</svg>
