<svg width="1024" height="1024" viewBox="0 0 1024 1024" fill="none" xmlns="http://www.w3.org/2000/svg">
<rect width="1024" height="1024" fill="white"/>
<path fill-rule="evenodd" clip-rule="evenodd" d="M999.349 407.339C952.51 445.543 892.704 468.453 827.547 468.453C677.325 468.453 555.547 346.675 555.547 196.453C555.547 182.123 556.655 168.052 558.79 154.321C544.82 153.62 529.572 153.325 512 153.325C435.179 153.325 402.77 158.965 327.443 179.475C264.571 115.538 199.125 87.4427 104.313 72.9062C74.4059 142.49 62.2127 217.194 96.5131 299.198C22.838 391.23 0 434.164 0 560.568C0 771.354 63.0627 948.835 512 948.835C960.937 948.835 1024 771.354 1024 560.568C1024 491.972 1017.27 447.958 999.349 407.339ZM146.293 661.369C161.291 462.287 322.085 479.058 442.556 491.623C468.654 494.345 492.859 496.87 513.28 496.96C533.706 496.87 557.909 494.344 583.999 491.621C704.4 479.056 864.987 462.297 879.984 661.369C897.727 896.888 645.713 896.599 523.368 896.458C519.879 896.454 516.494 896.45 513.225 896.452C509.956 896.45 506.572 896.454 503.082 896.458C380.739 896.599 128.551 896.889 146.293 661.369ZM358.657 651.388C358.657 693.024 335.676 726.777 307.328 726.777C278.98 726.777 256 693.024 256 651.388C256 609.753 278.98 576 307.328 576C335.676 576 358.657 609.753 358.657 651.388ZM716.672 729.289C745.02 729.289 768 695.537 768 653.901C768 612.265 745.02 578.513 716.672 578.513C688.324 578.513 665.343 612.265 665.343 653.901C665.343 695.537 688.324 729.289 716.672 729.289Z" fill="black"/>
<path fill-rule="evenodd" clip-rule="evenodd" d="M832 352C920.366 352 992 280.366 992 192C992 103.634 920.366 32 832 32C743.634 32 672 103.634 672 192C672 280.366 743.634 352 832 352Z" fill="black"/>
</svg>
