<svg width="1024" height="1024" viewBox="0 0 1024 1024" fill="none" xmlns="http://www.w3.org/2000/svg">
<path d="M277.501 512.493C296.721 551.217 327.566 590.852 377.167 615.248C393.304 623.185 412.459 621.845 427.334 611.739C442.208 601.633 450.51 584.318 449.076 566.393C436.137 404.732 463.196 264.289 539.548 169.499C546.822 210.56 558.464 245.391 573.397 276.05C599.392 329.42 634.01 367.009 663.862 399.159L664.937 400.316C695.054 432.75 719.672 459.262 738.212 495.238C756.414 530.558 770 577.888 770 651.133C770 793.529 654.51 909 512 909C369.49 909 254 793.529 254 651.133C254 607.859 261.649 560.083 277.501 512.493Z" stroke="white" stroke-width="100" stroke-linejoin="round"/>
</svg>
